<mxfile host="app.diagrams.net" modified="2021-09-21T23:45:39.655Z" agent="5.0 (Windows)" etag="_oJIuGW7nLl1fpKnGDxl" version="15.2.9" type="github">
  <diagram name="Page-1" id="e56a1550-8fbb-45ad-956c-1786394a9013">
    <mxGraphModel dx="1209" dy="700" grid="1" gridSize="10" guides="1" tooltips="1" connect="1" arrows="1" fold="1" page="1" pageScale="1" pageWidth="1100" pageHeight="850" background="none" math="0" shadow="0">
      <root>
        <mxCell id="0" />
        <mxCell id="1" parent="0" />
        <mxCell id="-FHoIz2lVmXjxHd83ozA-4" style="edgeStyle=orthogonalEdgeStyle;rounded=0;orthogonalLoop=1;jettySize=auto;html=1;exitX=1;exitY=0.5;exitDx=0;exitDy=0;" edge="1" parent="1" source="-FHoIz2lVmXjxHd83ozA-1" target="-FHoIz2lVmXjxHd83ozA-2">
          <mxGeometry relative="1" as="geometry" />
        </mxCell>
        <mxCell id="-FHoIz2lVmXjxHd83ozA-1" value="Mall" style="rounded=0;whiteSpace=wrap;html=1;" vertex="1" parent="1">
          <mxGeometry x="130" y="250" width="120" height="60" as="geometry" />
        </mxCell>
        <mxCell id="-FHoIz2lVmXjxHd83ozA-2" value="has" style="rhombus;whiteSpace=wrap;html=1;" vertex="1" parent="1">
          <mxGeometry x="290" y="240" width="80" height="80" as="geometry" />
        </mxCell>
        <mxCell id="-FHoIz2lVmXjxHd83ozA-3" value="Store" style="whiteSpace=wrap;html=1;aspect=fixed;" vertex="1" parent="1">
          <mxGeometry x="410" y="240" width="80" height="80" as="geometry" />
        </mxCell>
      </root>
    </mxGraphModel>
  </diagram>
</mxfile>
